PathFileType	4	(X/Y/Z)	/Users/itak/Documents/Research/Walk-IL/dataset/trc/00188_00008.trc
DataRate	CameraRate	NumFrames	NumMarkers	Units	OrigDataRate	OrigDataStartFrame	OrigNumFrames
100.000000	100.000000	4	53	mm	100.000000	304	812
Frame#	Time	RPSI			LPSI			L3			STRN			T10			C7			CLAV			RBAK			LBAK			LSHO			LUPA			LAEL			LAOL			LWTS			LWPS			LFRA			LIFD			LHPS			LHTS			RSHO			RUPA			RAEL			RAOL			RWTS			RWPS			RFRA			RIFD			RHTS			RHPS			RBHD			LFHD			RFHD			LBHD			LHIP			RHIP			RASI			LASI			LKNE			LTHI			LANK			LTIP			LTOE			LMT1			LMT5			LHEE			RKNE			RTHI			RANK			RTIP			RTOE			RMT1			RMT5			RHEE			
		X1	Y1	Z1	X2	Y2	Z2	X3	Y3	Z3	X4	Y4	Z4	X5	Y5	Z5	X6	Y6	Z6	X7	Y7	Z7	X8	Y8	Z8	X9	Y9	Z9	X10	Y10	Z10	X11	Y11	Z11	X12	Y12	Z12	X13	Y13	Z13	X14	Y14	Z14	X15	Y15	Z15	X16	Y16	Z16	X17	Y17	Z17	X18	Y18	Z18	X19	Y19	Z19	X20	Y20	Z20	X21	Y21	Z21	X22	Y22	Z22	X23	Y23	Z23	X24	Y24	Z24	X25	Y25	Z25	X26	Y26	Z26	X27	Y27	Z27	X28	Y28	Z28	X29	Y29	Z29	X30	Y30	Z30	X31	Y31	Z31	X32	Y32	Z32	X33	Y33	Z33	X34	Y34	Z34	X35	Y35	Z35	X36	Y36	Z36	X37	Y37	Z37	X38	Y38	Z38	X39	Y39	Z39	X40	Y40	Z40	X41	Y41	Z41	X42	Y42	Z42	X43	Y43	Z43	X44	Y44	Z44	X45	Y45	Z45	X46	Y46	Z46	X47	Y47	Z47	X48	Y48	Z48	X49	Y49	Z49	X50	Y50	Z50	X51	Y51	Z51	X52	Y52	Z52	X53	Y53	Z53	

305	3.04	-711.0357666015625	1050.466918945312	-256.8989868164062	-820.5588989257812	1057.515625	-312.9234008789062	-759.2964477539062	1092.968017578125	-284.8350219726562	-637.6653442382812	1292.9267578125	-525.6671752929688	-768.3145751953125	1254.0498046875	-259.3116149902344	-744.6180419921875	1520.41015625	-334.8641357421875	-656.10546875	1407.383056640625	-509.3427124023438	-678.6141967773438	1347.290161132812	-219.9650726318359	-836.2726440429688	1496.639404296875	-368.5675048828125	-875.5501708984375	1480.562866210938	-471.8980102539062	-956.3187866210938	1349.471313476562	-460.4822998046875	-970.914794921875	1133.143432617188	-467.5113830566406	-915.3794555664062	1116.536743164062	-400.0908813476562	-908.02587890625	912.9830322265625	-583.1128540039062	-967.6072998046875	885.0177001953125	-516.8585205078125	-978.2132568359375	1023.094421386719	-490.4234008789062	-903.1301879882812	743.593017578125	-620.8067626953125	-965.025634765625	821.9264526367188	-548.1326293945312	-930.86474609375	842.8983764648438	-609.4837036132812	-556.2775268554688	1497.123901367188	-310.6620788574219	-505.6400146484375	1431.581420898438	-258.8158874511719	-467.3352661132812	1139.36279296875	-215.7543182373047	-549.7476806640625	1134.320678710938	-260.9757080078125	-413.0364990234375	960.2852172851562	-407.5350952148438	-408.7666931152344	914.871826171875	-330.6118469238281	-438.032470703125	1068.742309570312	-246.7410888671875	-417.1016235351562	791.6408081054688	-495.3609008789062	-389.6999816894531	879.162353515625	-455.5782470703125	-396.4079284667969	845.3372802734375	-382.7632446289062	-674.8079833984375	1661.818725585938	-341.6028747558594	-649.9560546875	1736.150268554688	-546.5826416015625	-558.1639404296875	1721.979370117188	-456.537841796875	-776.7606201171875	1683.168212890625	-428.6986083984375	-875.795166015625	1005.710998535156	-461.1365356445312	-544.435546875	989.4853515625	-336.3850402832031	-542.3273315429688	1025.7880859375	-430.8371276855469	-772.1375122070312	1043.959594726562	-543.1273803710938	-789.1416625976562	533.4244384765625	-662.9468994140625	-825.80029296875	671.4530029296875	-617.82080078125	-941.7281494140625	95.79060363769531	-506.8703002929688	-871.5645141601562	323.3667297363281	-598.5447998046875	-819.6482543945312	59.66831588745117	-678.5379638671875	-798.912353515625	70.05008697509766	-614.0287475585938	-922.6748657226562	60.41043090820312	-612.6836547851562	-909.0284423828125	110.2597732543945	-430.133056640625	-636.0755615234375	496.7858276367188	-417.1089782714844	-537.7203369140625	755.5413818359375	-405.9254760742188	-770.6116333007812	33.79536819458008	-382.819580078125	-670.9609985351562	382.5484924316406	-447.9434509277344	-689.6273193359375	46.39591217041016	-590.8073120117188	-751.4279174804688	40.59976577758789	-565.6144409179688	-682.964599609375	40.38644790649414	-462.0213928222656	-853.2531127929688	33.17324447631836	-374.2792358398438	
306	3.05	-710.646728515625	1050.179809570312	-263.3948974609375	-818.7744750976562	1056.985229492188	-321.888671875	-758.385009765625	1092.245727539062	-292.3128662109375	-632.0559692382812	1292.574340820312	-531.2135009765625	-766.8534545898438	1253.770263671875	-266.8170166015625	-741.7272338867188	1520.076416015625	-342.0890197753906	-650.967041015625	1407.10693359375	-515.4601440429688	-677.3213500976562	1347.10302734375	-226.2742614746094	-832.9523315429688	1496.108520507812	-377.3446044921875	-870.83984375	1480.027465820312	-480.9027099609375	-951.8698120117188	1349.123168945312	-470.7788696289062	-967.1151123046875	1132.992553710938	-478.5160522460938	-912.667236328125	1116.07080078125	-410.3561096191406	-903.7985229492188	912.5463256835938	-593.31201171875	-964.2804565429688	884.8402709960938	-527.8756103515625	-974.6349487304688	1023.023681640625	-501.5991516113281	-899.081298828125	742.6619873046875	-630.96630859375	-961.5835571289062	821.6893920898438	-559.0641479492188	-926.6719970703125	842.4659423828125	-619.9369506835938	-553.6792602539062	1497.010375976562	-315.5426635742188	-503.5321960449219	1431.439331054688	-263.1637878417969	-465.366943359375	1138.877807617188	-220.8761444091797	-549.44775390625	1134.927978515625	-264.2865600585938	-410.6478576660156	960.7680053710938	-413.5244445800781	-406.3384094238281	914.9869995117188	-336.7976989746094	-435.9767150878906	1068.32080078125	-252.0580291748047	-414.6612854003906	792.5400390625	-502.1435546875	-387.2700500488281	879.8847045898438	-461.9334411621094	-393.96484375	845.7147216796875	-389.2839965820312	-672.579833984375	1661.852172851562	-348.7501525878906	-644.8150024414062	1735.056762695312	-553.7257690429688	-554.2880249023438	1721.641479492188	-462.2174682617188	-773.1434326171875	1682.4521484375	-437.6113586425781	-870.5223999023438	1005.661071777344	-471.1855773925781	-541.0042724609375	989.2960815429688	-339.0052490234375	-538.1267700195312	1025.57470703125	-433.5800170898438	-765.1012573242188	1043.770874023438	-550.9608764648438	-775.8272705078125	534.6787109375	-673.52197265625	-814.8107299804688	672.3005981445312	-628.76708984375	-926.232421875	89.59354400634766	-536.8814086914062	-857.3908081054688	321.4642639160156	-618.4729614257812	-797.6041870117188	61.44551849365234	-705.30419921875	-779.2140502929688	69.89966583251953	-639.8085327148438	-902.7796020507812	57.9510498046875	-643.151123046875	-896.28564453125	102.0190658569336	-458.5547180175781	-634.4446411132812	496.2520751953125	-417.8079528808594	-535.3839111328125	754.8516235351562	-407.391357421875	-770.6815795898438	33.7447509765625	-382.7589721679688	-669.551025390625	382.12060546875	-448.4599914550781	-689.2431030273438	45.89607238769531	-590.782470703125	-751.01123046875	40.59550476074219	-565.5693969726562	-682.7428588867188	40.08277893066406	-461.7682495117188	-853.52978515625	33.14339828491211	-374.5288391113281	
307	3.06	-710.1666870117188	1049.67724609375	-269.9210815429688	-816.8584594726562	1056.311645507812	-330.8895263671875	-757.4534301757812	1091.344848632812	-299.8062744140625	-626.3831787109375	1292.060791015625	-536.7308349609375	-765.3333129882812	1253.38623046875	-274.3501281738281	-738.7984008789062	1519.671997070312	-349.3574523925781	-645.7431640625	1406.69287109375	-521.5332641601562	-676.0333862304688	1346.818115234375	-232.5938110351562	-829.505615234375	1495.429321289062	-386.216552734375	-866.02197265625	1479.381713867188	-489.9365539550781	-947.315185546875	1348.681884765625	-481.1058044433594	-963.2481689453125	1132.754028320312	-489.5259399414062	-909.8424072265625	1115.5048828125	-420.668701171875	-899.6290893554688	911.9555053710938	-603.4743041992188	-960.9911499023438	884.567626953125	-538.8060913085938	-971.0108032226562	1022.860107421875	-512.7459716796875	-895.1759643554688	741.535888671875	-640.9833984375	-958.1995849609375	821.333740234375	-569.8623657226562	-922.6055908203125	841.8670043945312	-630.2957763671875	-551.0478515625	1496.733276367188	-320.4326782226562	-501.4269104003906	1431.134155273438	-267.4977722167969	-463.4075622558594	1138.249755859375	-225.9051208496094	-548.8206176757812	1135.224609375	-267.9501647949219	-408.2515869140625	960.9464111328125	-419.2743835449219	-403.8965148925781	914.8748168945312	-342.698974609375	-433.9058227539062	1067.766845703125	-257.253173828125	-412.2522888183594	793.0333251953125	-508.5040893554688	-384.8507385253906	880.23681640625	-467.97314453125	-391.5258178710938	845.8128662109375	-395.444091796875	-670.2565307617188	1661.739868164062	-355.9051818847656	-639.6129150390625	1733.853271484375	-560.796630859375	-550.3629760742188	1721.182495117188	-467.873779296875	-769.43408203125	1681.600830078125	-446.5303039550781	-865.1642456054688	1005.458740234375	-481.1886596679688	-537.561279296875	989.0123291015625	-341.6336364746094	-533.9111938476562	1025.265258789062	-436.3319396972656	-757.9761962890625	1043.427368164062	-558.7515869140625	-762.7835083007812	535.7483520507812	-683.6102294921875	-803.8991088867188	672.9818115234375	-639.3616943359375	-909.3466186523438	83.75193023681641	-565.9241943359375	-842.7630004882812	319.6305236816406	-637.6123046875	-774.7113647460938	63.58174133300781	-730.8746948242188	-758.5603637695312	70.17446136474609	-664.5872192382812	-881.7249145507812	55.8043212890625	-672.4073486328125	-881.9737548828125	94.18555450439453	-486.2420654296875	-632.7348022460938	495.6860046386719	-418.7065124511719	-532.9873046875	754.1377563476562	-408.89990234375	-770.7562255859375	33.69745254516602	-382.6946716308594	-668.0540771484375	381.6268310546875	-449.080810546875	-688.827880859375	45.36347198486328	-590.7205810546875	-750.6336669921875	40.55149841308594	-565.560546875	-682.4597778320312	39.74292755126953	-461.4670104980469	-853.801513671875	33.15275573730469	-374.7546997070312	
308	3.07	-709.5635375976562	1048.932373046875	-276.5160522460938	-814.80322265625	1055.521606445312	-339.9383239746094	-756.434814453125	1090.306396484375	-307.3229370117188	-620.6500854492188	1291.378540039062	-542.2232666015625	-763.7406616210938	1252.904663085938	-281.9237976074219	-735.845947265625	1519.21240234375	-356.689208984375	-640.4207153320312	1406.119750976562	-527.5643920898438	-674.7401733398438	1346.4404296875	-238.9298095703125	-825.9391479492188	1494.613037109375	-395.1352233886719	-861.0861206054688	1478.616088867188	-499.0128784179688	-942.6622924804688	1348.134155273438	-491.4656066894531	-959.3109130859375	1132.413208007812	-500.5167846679688	-906.8984985351562	1114.828002929688	-431.0018615722656	-895.5081787109375	911.2118530273438	-613.5949096679688	-957.7138061523438	884.1846923828125	-549.6337890625	-967.3341674804688	1022.58740234375	-523.8428344726562	-891.40576171875	740.2299194335938	-650.8910522460938	-954.848876953125	820.85107421875	-580.5232543945312	-918.6491088867188	841.1113891601562	-640.5618896484375	-548.38134765625	1496.288696289062	-325.3423767089844	-499.310302734375	1430.655883789062	-271.8371276855469	-461.4481506347656	1137.468383789062	-230.8507843017578	-547.78173828125	1135.162109375	-272.0532531738281	-405.8305053710938	960.81689453125	-424.7925720214844	-401.4297790527344	914.5313720703125	-348.32763671875	-431.8225402832031	1067.0595703125	-262.3294372558594	-409.8485412597656	793.1201171875	-514.4642333984375	-382.4293212890625	880.2190551757812	-473.7131042480469	-389.0748596191406	845.6268310546875	-401.2616271972656	-667.8318481445312	1661.472900390625	-363.0783996582031	-634.3363647460938	1732.553588867188	-567.8037719726562	-546.3790283203125	1720.6044921875	-473.5119934082031	-765.6304321289062	1680.616455078125	-455.4495544433594	-859.7276611328125	1005.110229492188	-491.1436462402344	-534.0927734375	988.6217651367188	-344.2916564941406	-529.6555786132812	1024.844848632812	-439.1119384765625	-750.7667236328125	1042.93408203125	-566.4993286132812	-750.0914306640625	536.6185302734375	-693.2351684570312	-793.1387939453125	673.4768676757812	-649.5914306640625	-891.12890625	78.26994323730469	-593.8995361328125	-827.7374267578125	317.8379211425781	-655.939208984375	-751.1283569335938	66.09416961669922	-755.2557373046875	-737.0685424804688	70.86473083496094	-688.3491821289062	-859.6459350585938	54.02920150756836	-700.3890380859375	-866.138916015625	86.76227569580078	-513.0847778320312	-630.9337158203125	495.0835876464844	-419.8288879394531	-530.4860229492188	753.3925170898438	-410.446044921875	-770.8326416015625	33.66026306152344	-382.6304626464844	-666.4676513671875	381.0497436523438	-449.85546875	-688.365234375	44.80842590332031	-590.6289672851562	-750.2845458984375	40.47445678710938	-565.5833740234375	-682.1167602539062	39.37063217163086	-461.1273193359375	-854.0626831054688	33.20320129394531	-374.9609375	
